<svg width="151" height="50" viewBox="0 0 151 50" fill="none" xmlns="http://www.w3.org/2000/svg">
<path fill-rule="evenodd" clip-rule="evenodd" d="M24.54 0.124565C23.396 0.572006 23.5641 0.999992 23.2861 2.75733C22.9242 5.07235 22.1227 10.9799 21.5863 12.5427C20.9394 14.4058 19.721 16.0155 18.1059 17.1409C16.4907 18.2663 14.5618 18.8495 12.5958 18.8068C11.0252 18.8068 4.94316 17.6785 2.66159 17.3153C1.51112 17.1273 0.360644 17.0754 0.0762571 18.1908C-0.30508 19.572 0.826005 19.9805 1.64685 20.3761C2.46769 20.7717 3.30793 21.2386 4.15463 21.673C7.48971 23.3979 11.5293 24.8505 13.2033 27.8918C15.8404 32.5997 14.2374 35.6734 12.208 39.6225C11.3354 41.3085 10.4758 42.9621 9.62262 44.674C9.20896 45.5106 8.60141 46.6778 9.42225 47.4689C10.4241 48.4287 11.3936 47.5532 11.9365 47.002L15.7563 43.1696C18.4839 40.4396 20.7266 37.4242 25.7422 37.8328C27.7296 38.014 29.6114 38.8118 31.1262 40.1153C32.296 41.2502 38.1647 47.4106 38.824 47.7218C39.0488 47.8404 39.3002 47.8992 39.5541 47.8927C39.808 47.8861 40.056 47.8143 40.2745 47.6843C40.4929 47.5542 40.6745 47.3702 40.8018 47.1497C40.9292 46.9292 40.9982 46.6797 41.0022 46.4249C41.0022 45.731 37.7123 39.5447 37.2793 38.6433C36.3421 36.7628 35.4437 35.401 35.4178 32.8785C35.4091 31.4026 35.7489 29.9456 36.4095 28.6269C37.0701 27.3081 38.0326 26.1651 39.2183 25.2915C39.9915 24.7595 40.8089 24.2952 41.6614 23.9037L49.2365 20.013C49.4516 19.8907 49.6334 19.7171 49.7659 19.5075C49.8983 19.298 49.9772 19.059 49.9958 18.8116C50.0143 18.5642 49.9718 18.316 49.8721 18.089C49.7723 17.862 49.6184 17.6631 49.4239 17.5099C48.6548 16.9328 47.3104 17.3737 46.315 17.5099L43.0187 18.0351C41.0797 18.3399 38.1841 19.0014 36.2322 18.7809C34.3058 18.5669 32.4927 17.7592 31.0425 16.4691C29.5922 15.179 28.576 13.4697 28.1336 11.5764C27.6747 9.51433 27.4097 7.10204 27.0672 4.98156C26.7246 2.86108 26.7052 -0.711953 24.54 0.124565ZM10.7278 21.6212C15.0195 22.0686 17.7858 21.1802 20.481 19.0727C23.4477 16.7577 24.1587 14.4167 25.0054 11.116C25.5224 15.973 29.3229 19.9351 33.621 21.271C35.8315 21.9519 37.0466 21.7833 39.3346 21.6601C39.014 21.8752 38.6817 22.0722 38.3393 22.2502C36.0103 23.6694 34.218 25.8254 33.2444 28.3788C32.2709 30.9322 32.1714 33.7379 32.9618 36.3543C33.1944 37.1843 33.5693 37.8133 33.802 38.5331C33.2074 38.0792 32.7549 37.5734 32.0181 37.0676C30.2456 35.8212 28.1762 35.067 26.0197 34.8814C23.8631 34.6958 21.6959 35.0853 19.7377 36.0106C18.8458 36.4321 16.5061 37.956 16.1377 38.6044C16.1958 38.2283 16.784 37.0092 16.9779 36.4191C17.7295 34.0012 17.7201 31.4096 16.951 28.9973C16.1819 26.5849 14.6905 24.469 12.6798 22.9375L10.7278 21.6212Z" fill="#5A3399"/>
<path fill-rule="evenodd" clip-rule="evenodd" d="M24.1911 43.7007C19.9576 44.855 21.8061 50.9246 25.8004 49.8806C29.7948 48.8366 28.2307 42.5918 24.1911 43.7007Z" fill="#DD1E5A"/>
<path fill-rule="evenodd" clip-rule="evenodd" d="M5.05435 29.4755C0.91135 30.2277 1.96488 36.44 6.12727 35.7785C10.2897 35.1171 9.22968 28.7168 5.05435 29.4755Z" fill="#5A3399"/>
<path fill-rule="evenodd" clip-rule="evenodd" d="M43.5504 29.5771C42.738 29.809 42.0484 30.3508 41.6292 31.0865C41.21 31.8222 41.0946 32.6933 41.3076 33.5133C42.3417 37.5208 48.5788 35.971 47.4607 31.8403C47.355 31.4323 47.1695 31.0495 46.9149 30.7142C46.6604 30.3788 46.3419 30.0977 45.9779 29.887C45.614 29.6764 45.212 29.5405 44.7952 29.4873C44.3784 29.4341 43.9553 29.4646 43.5504 29.5771Z" fill="#FFB428"/>
<path fill-rule="evenodd" clip-rule="evenodd" d="M12.4031 6.62982C8.13083 7.64142 9.66264 13.7629 13.7345 12.881C14.5477 12.6831 15.2526 12.1765 15.701 11.4678C16.1494 10.7591 16.3064 9.90348 16.1389 9.08101C15.9665 8.2595 15.4764 7.54012 14.776 7.08062C14.0757 6.62112 13.2224 6.459 12.4031 6.62982Z" fill="#00C8FF"/>
<path fill-rule="evenodd" clip-rule="evenodd" d="M36.545 6.62954C32.402 7.278 33.2551 13.6329 37.6114 12.9261C38.4348 12.7641 39.1615 12.2835 39.6344 11.5882C40.1073 10.8928 40.2885 10.0387 40.1386 9.21042C40.0719 8.80403 39.9261 8.41482 39.7093 8.06507C39.4925 7.71532 39.2091 7.4119 38.8753 7.17217C38.5415 6.93245 38.1639 6.76112 37.764 6.66801C37.3641 6.5749 36.9499 6.56182 36.545 6.62954Z" fill="#6DC852"/>
<path d="M60 37.4997L65.915 13.5247H73.65L79.6 37.4997H75.68L74.385 32.3547H65.18L63.885 37.4997H60ZM68.925 16.7797L65.95 28.9247H73.615L70.675 16.7797H68.925Z" fill="#1D1B1E"/>
<path d="M97.5837 39.8797C97.5837 43.7064 94.8187 45.6197 89.2887 45.6197C86.6287 45.6197 84.657 45.2581 83.3737 44.5347C82.0904 43.8114 81.4487 42.4931 81.4487 40.5797C81.4487 39.7164 81.6587 38.9697 82.0787 38.3397C82.4987 37.7331 83.1754 37.0681 84.1087 36.3447C83.3387 35.8314 82.9537 34.9797 82.9537 33.7897C82.9537 33.3231 83.2687 32.5647 83.8987 31.5147L84.2137 30.9897C82.5337 29.9864 81.6937 28.2364 81.6937 25.7397C81.6937 23.6397 82.3237 22.0997 83.5837 21.1197C84.8437 20.1397 86.547 19.6497 88.6937 19.6497C89.7204 19.6497 90.7354 19.7664 91.7387 19.9997L92.2637 20.1047L97.6887 19.9647V23.0447L94.7837 22.8697C95.4137 23.6864 95.7287 24.6431 95.7287 25.7397C95.7287 28.0264 95.1454 29.6131 93.9787 30.4997C92.8354 31.3631 91.0387 31.7947 88.5887 31.7947C87.982 31.7947 87.4687 31.7481 87.0487 31.6547C86.722 32.4481 86.5587 33.0664 86.5587 33.5097C86.5587 33.9297 86.7687 34.2214 87.1887 34.3847C87.632 34.5481 88.682 34.6414 90.3387 34.6647C93.1154 34.6881 95.017 35.0614 96.0437 35.7847C97.0704 36.5081 97.5837 37.8731 97.5837 39.8797ZM85.1937 40.2297C85.1937 41.0464 85.5204 41.6297 86.1737 41.9797C86.827 42.3297 87.947 42.5047 89.5337 42.5047C92.357 42.5047 93.7687 41.6997 93.7687 40.0897C93.7687 39.1797 93.5121 38.5964 92.9987 38.3397C92.5087 38.1064 91.517 37.9781 90.0237 37.9547L86.5937 37.7447C86.0804 38.1647 85.7187 38.5497 85.5087 38.8997C85.2987 39.2731 85.1937 39.7164 85.1937 40.2297ZM85.4737 25.7397C85.4737 26.8131 85.7304 27.6064 86.2437 28.1197C86.757 28.6097 87.5854 28.8547 88.7287 28.8547C89.872 28.8547 90.6887 28.6097 91.1787 28.1197C91.692 27.6064 91.9487 26.8131 91.9487 25.7397C91.9487 24.6664 91.692 23.8847 91.1787 23.3947C90.6654 22.8814 89.837 22.6247 88.6937 22.6247C86.547 22.6247 85.4737 23.6631 85.4737 25.7397Z" fill="#1D1B1E"/>
<path d="M101.622 21.8897C102.836 20.3731 104.842 19.6147 107.642 19.6147C110.442 19.6147 112.437 20.3731 113.627 21.8897C114.841 23.4064 115.447 25.6814 115.447 28.7147C115.447 31.7481 114.864 34.0347 113.697 35.5747C112.531 37.1147 110.512 37.8847 107.642 37.8847C104.772 37.8847 102.754 37.1147 101.587 35.5747C100.421 34.0347 99.8374 31.7481 99.8374 28.7147C99.8374 25.6814 100.432 23.4064 101.622 21.8897ZM104.492 33.2647C105.029 34.1981 106.079 34.6647 107.642 34.6647C109.206 34.6647 110.256 34.1981 110.792 33.2647C111.329 32.3314 111.597 30.8031 111.597 28.6797C111.597 26.5564 111.306 25.0514 110.722 24.1647C110.162 23.2781 109.136 22.8347 107.642 22.8347C106.149 22.8347 105.111 23.2781 104.527 24.1647C103.967 25.0514 103.687 26.5564 103.687 28.6797C103.687 30.8031 103.956 32.3314 104.492 33.2647Z" fill="#1D1B1E"/>
<path d="M131.382 23.6047C128.629 23.2314 126.634 23.0447 125.397 23.0447C124.16 23.0447 123.297 23.1964 122.807 23.4997C122.34 23.7797 122.107 24.2347 122.107 24.8647C122.107 25.4947 122.364 25.9381 122.877 26.1947C123.414 26.4514 124.65 26.7547 126.587 27.1047C128.547 27.4314 129.935 27.9564 130.752 28.6797C131.569 29.4031 131.977 30.6864 131.977 32.5297C131.977 34.3731 131.382 35.7264 130.192 36.5897C129.025 37.4531 127.31 37.8847 125.047 37.8847C123.624 37.8847 121.827 37.6864 119.657 37.2897L118.572 37.1147L118.712 33.9297C121.512 34.3031 123.53 34.4897 124.767 34.4897C126.004 34.4897 126.879 34.3381 127.392 34.0347C127.929 33.7314 128.197 33.2297 128.197 32.5297C128.197 31.8297 127.94 31.3514 127.427 31.0947C126.937 30.8147 125.735 30.5231 123.822 30.2197C121.932 29.8931 120.544 29.3914 119.657 28.7147C118.77 28.0381 118.327 26.8014 118.327 25.0047C118.327 23.2081 118.934 21.8664 120.147 20.9797C121.384 20.0931 122.959 19.6497 124.872 19.6497C126.365 19.6497 128.197 19.8364 130.367 20.2097L131.452 20.4197L131.382 23.6047Z" fill="#1D1B1E"/>
<path d="M139.458 37.4997H135.643V12.7197H139.458V20.9097C141.185 20.0464 142.783 19.6147 144.253 19.6147C146.587 19.6147 148.173 20.2797 149.013 21.6097C149.877 22.9164 150.308 25.0864 150.308 28.1197V37.4997H146.493V28.2247C146.493 26.3347 146.295 24.9931 145.898 24.1997C145.502 23.4064 144.662 23.0097 143.378 23.0097C142.258 23.0097 141.138 23.1964 140.018 23.5697L139.458 23.7797V37.4997Z" fill="#1D1B1E"/>
</svg>