<svg width="121" height="40" viewBox="0 0 121 40" fill="none" xmlns="http://www.w3.org/2000/svg">
<path fill-rule="evenodd" clip-rule="evenodd" d="M19.632 0.0996523C18.7168 0.457605 18.8512 0.799994 18.6289 2.20586C18.3393 4.05788 17.6982 8.78388 17.269 10.0341C16.7515 11.5246 15.7768 12.8124 14.4847 13.7127C13.1926 14.613 11.6494 15.0796 10.0766 15.0455C8.82013 15.0455 3.95452 14.1428 2.12928 13.8523C1.2089 13.7018 0.288515 13.6603 0.0610057 14.5526C-0.244064 15.6576 0.660804 15.9844 1.31748 16.3009C1.97416 16.6173 2.64634 16.9908 3.3237 17.3384C5.99177 18.7184 9.22344 19.8804 10.5626 22.3134C12.6723 26.0797 11.39 28.5387 9.76636 31.698C9.06832 33.0468 8.38062 34.3697 7.69809 35.7392C7.36717 36.4085 6.88113 37.3422 7.5378 37.9751C8.33926 38.7429 9.11486 38.0426 9.54919 37.6016L12.6051 34.5357C14.7871 32.3517 16.5813 29.9394 20.5938 30.2662C22.1837 30.4112 23.6892 31.0494 24.9009 32.0923C25.8368 33.0001 30.5318 37.9285 31.0592 38.1775C31.2391 38.2723 31.4401 38.3194 31.6433 38.3141C31.8464 38.3089 32.0448 38.2515 32.2196 38.1474C32.3943 38.0434 32.5396 37.8962 32.6415 37.7198C32.7434 37.5434 32.7986 37.3438 32.8017 37.1399C32.8017 36.5848 30.1698 31.6358 29.8234 30.9147C29.0737 29.4102 28.3549 28.3208 28.3343 26.3028C28.3273 25.1221 28.5991 23.9565 29.1276 22.9015C29.656 21.8465 30.4261 20.9321 31.3746 20.2332C31.9932 19.8076 32.6471 19.4362 33.3291 19.123L39.3892 16.0104C39.5613 15.9125 39.7067 15.7737 39.8127 15.606C39.9186 15.4384 39.9818 15.2472 39.9966 15.0493C40.0114 14.8514 39.9774 14.6528 39.8977 14.4712C39.8179 14.2896 39.6947 14.1305 39.5391 14.0079C38.9238 13.5462 37.8483 13.899 37.052 14.0079L34.415 14.4281C32.8638 14.6719 30.5473 15.2011 28.9858 15.0247C27.4446 14.8535 25.9942 14.2074 24.834 13.1753C23.6738 12.1432 22.8608 10.7758 22.5069 9.26115C22.1398 7.61146 21.9278 5.68163 21.6537 3.98525C21.3797 2.28887 21.3642 -0.569563 19.632 0.0996523ZM8.58228 17.2969C12.0156 17.6549 14.2287 16.9442 16.3848 15.2582C18.7582 13.4061 19.3269 11.5334 20.0043 8.89283C20.418 12.7784 23.4583 15.9481 26.8968 17.0168C28.6652 17.5615 29.6373 17.4266 31.4677 17.3281C31.2112 17.5002 30.9454 17.6578 30.6714 17.8001C28.8082 18.9355 27.3744 20.6603 26.5955 22.703C25.8167 24.7458 25.7372 26.9903 26.3694 29.0834C26.5555 29.7474 26.8554 30.2506 27.0416 30.8265C26.5659 30.4633 26.2039 30.0587 25.6145 29.6541C24.1965 28.657 22.541 28.0536 20.8157 27.9051C19.0905 27.7566 17.3568 28.0683 15.7902 28.8085C15.0766 29.1457 13.2049 30.3648 12.9101 30.8835C12.9567 30.5827 13.4272 29.6074 13.5823 29.1353C14.1836 27.201 14.1761 25.1277 13.5608 23.1978C12.9455 21.2679 11.7524 19.5752 10.1438 18.35L8.58228 17.2969Z" fill="#5A3399"/>
<path fill-rule="evenodd" clip-rule="evenodd" d="M19.353 34.96C15.9663 35.8834 17.4451 40.7391 20.6405 39.9039C23.836 39.0686 22.5847 34.0729 19.353 34.96Z" fill="#DD1E5A"/>
<path fill-rule="evenodd" clip-rule="evenodd" d="M4.04329 23.5801C0.728885 24.1819 1.5717 29.1517 4.90162 28.6226C8.23153 28.0934 7.38354 22.9732 4.04329 23.5801Z" fill="#5A3399"/>
<path fill-rule="evenodd" clip-rule="evenodd" d="M34.8402 23.6622C34.1903 23.8477 33.6386 24.2811 33.3033 24.8697C32.9679 25.4582 32.8756 26.1551 33.046 26.8111C33.8733 30.0171 38.863 28.7773 37.9684 25.4727C37.8839 25.1463 37.7355 24.8401 37.5319 24.5718C37.3282 24.3035 37.0734 24.0786 36.7823 23.9101C36.4911 23.7416 36.1695 23.6329 35.8361 23.5903C35.5026 23.5478 35.1641 23.5722 34.8402 23.6622Z" fill="#FFB428"/>
<path fill-rule="evenodd" clip-rule="evenodd" d="M9.92267 5.30411C6.50486 6.1134 7.73031 11.0106 10.9878 10.3051C11.6383 10.1467 12.2023 9.74146 12.561 9.17448C12.9197 8.60751 13.0453 7.92304 12.9113 7.26507C12.7734 6.60786 12.3813 6.03235 11.821 5.66475C11.2608 5.29715 10.5781 5.16746 9.92267 5.30411Z" fill="#00C8FF"/>
<path fill-rule="evenodd" clip-rule="evenodd" d="M29.2356 5.30369C25.9212 5.82246 26.6037 10.9064 30.0888 10.341C30.7474 10.2114 31.3288 9.82687 31.7071 9.2706C32.0855 8.71433 32.2304 8.03101 32.1105 7.3684C32.0572 7.04329 31.9405 6.73192 31.767 6.45212C31.5936 6.17232 31.3669 5.92958 31.0999 5.7378C30.8328 5.54602 30.5307 5.40896 30.2108 5.33447C29.8909 5.25998 29.5595 5.24952 29.2356 5.30369Z" fill="#6DC852"/>
<path d="M48 30L52.732 10.82H58.92L63.68 30H60.544L59.508 25.884H52.144L51.108 30H48ZM55.14 13.424L52.76 23.14H58.892L56.54 13.424H55.14Z" fill="#1D1B1E"/>
<path d="M78.067 31.904C78.067 34.9653 75.855 36.496 71.431 36.496C69.303 36.496 67.7256 36.2067 66.699 35.628C65.6723 35.0493 65.159 33.9947 65.159 32.464C65.159 31.7733 65.327 31.176 65.663 30.672C65.999 30.1867 66.5403 29.6547 67.287 29.076C66.671 28.6653 66.363 27.984 66.363 27.032C66.363 26.6587 66.615 26.052 67.119 25.212L67.371 24.792C66.027 23.9893 65.355 22.5893 65.355 20.592C65.355 18.912 65.859 17.68 66.867 16.896C67.875 16.112 69.2376 15.72 70.955 15.72C71.7763 15.72 72.5883 15.8133 73.391 16L73.811 16.084L78.151 15.972V18.436L75.827 18.296C76.331 18.9493 76.583 19.7147 76.583 20.592C76.583 22.4213 76.1163 23.6907 75.183 24.4C74.2683 25.0907 72.831 25.436 70.871 25.436C70.3856 25.436 69.975 25.3987 69.639 25.324C69.3776 25.9587 69.247 26.4533 69.247 26.808C69.247 27.144 69.415 27.3773 69.751 27.508C70.1056 27.6387 70.9456 27.7133 72.271 27.732C74.4923 27.7507 76.0136 28.0493 76.835 28.628C77.6563 29.2067 78.067 30.2987 78.067 31.904ZM68.155 32.184C68.155 32.8373 68.4163 33.304 68.939 33.584C69.4616 33.864 70.3576 34.004 71.627 34.004C73.8856 34.004 75.015 33.36 75.015 32.072C75.015 31.344 74.8096 30.8773 74.399 30.672C74.007 30.4853 73.2136 30.3827 72.019 30.364L69.275 30.196C68.8643 30.532 68.575 30.84 68.407 31.12C68.239 31.4187 68.155 31.7733 68.155 32.184ZM68.379 20.592C68.379 21.4507 68.5843 22.0853 68.995 22.496C69.4056 22.888 70.0683 23.084 70.983 23.084C71.8976 23.084 72.551 22.888 72.943 22.496C73.3536 22.0853 73.559 21.4507 73.559 20.592C73.559 19.7333 73.3536 19.108 72.943 18.716C72.5323 18.3053 71.8696 18.1 70.955 18.1C69.2376 18.1 68.379 18.9307 68.379 20.592Z" fill="#1D1B1E"/>
<path d="M81.2979 17.512C82.2686 16.2987 83.8739 15.692 86.1139 15.692C88.3539 15.692 89.9499 16.2987 90.9019 17.512C91.8726 18.7253 92.3579 20.5453 92.3579 22.972C92.3579 25.3987 91.8912 27.228 90.9579 28.46C90.0246 29.692 88.4099 30.308 86.1139 30.308C83.8179 30.308 82.2032 29.692 81.2699 28.46C80.3366 27.228 79.8699 25.3987 79.8699 22.972C79.8699 20.5453 80.3459 18.7253 81.2979 17.512ZM83.5939 26.612C84.0232 27.3587 84.8632 27.732 86.1139 27.732C87.3646 27.732 88.2046 27.3587 88.6339 26.612C89.0632 25.8653 89.2779 24.6427 89.2779 22.944C89.2779 21.2453 89.0446 20.0413 88.5779 19.332C88.1299 18.6227 87.3086 18.268 86.1139 18.268C84.9192 18.268 84.0886 18.6227 83.6219 19.332C83.1739 20.0413 82.9499 21.2453 82.9499 22.944C82.9499 24.6427 83.1646 25.8653 83.5939 26.612Z" fill="#1D1B1E"/>
<path d="M105.106 18.884C102.903 18.5853 101.307 18.436 100.318 18.436C99.3282 18.436 98.6376 18.5573 98.2456 18.8C97.8722 19.024 97.6856 19.388 97.6856 19.892C97.6856 20.396 97.8909 20.7507 98.3016 20.956C98.7309 21.1613 99.7202 21.404 101.27 21.684C102.838 21.9453 103.948 22.3653 104.602 22.944C105.255 23.5227 105.582 24.5493 105.582 26.024C105.582 27.4987 105.106 28.5813 104.154 29.272C103.22 29.9627 101.848 30.308 100.038 30.308C98.8989 30.308 97.4616 30.1493 95.7256 29.832L94.8576 29.692L94.9696 27.144C97.2096 27.4427 98.8242 27.592 99.8136 27.592C100.803 27.592 101.503 27.4707 101.914 27.228C102.343 26.9853 102.558 26.584 102.558 26.024C102.558 25.464 102.352 25.0813 101.942 24.876C101.55 24.652 100.588 24.4187 99.0576 24.176C97.5456 23.9147 96.4349 23.5133 95.7256 22.972C95.0162 22.4307 94.6616 21.4413 94.6616 20.004C94.6616 18.5667 95.1469 17.4933 96.1176 16.784C97.1069 16.0747 98.3669 15.72 99.8976 15.72C101.092 15.72 102.558 15.8693 104.294 16.168L105.162 16.336L105.106 18.884Z" fill="#1D1B1E"/>
<path d="M111.567 30H108.515V10.176H111.567V16.728C112.948 16.0373 114.227 15.692 115.403 15.692C117.269 15.692 118.539 16.224 119.211 17.288C119.901 18.3333 120.247 20.0693 120.247 22.496V30H117.195V22.58C117.195 21.068 117.036 19.9947 116.719 19.36C116.401 18.7253 115.729 18.408 114.703 18.408C113.807 18.408 112.911 18.5573 112.015 18.856L111.567 19.024V30Z" fill="#1D1B1E"/>
</svg>
